<?xml version="1.0" standalone="no"?>
<!DOCTYPE svg PUBLIC "-//W3C//DTD SVG 20010904//EN"
 "http://www.w3.org/TR/2001/REC-SVG-20010904/DTD/svg10.dtd">
<svg version="1.0" xmlns="http://www.w3.org/2000/svg"
 width="452.000000pt" height="452.000000pt" viewBox="0 0 452.000000 452.000000"
 preserveAspectRatio="xMidYMid meet">
<metadata>
Created by potrace 1.14, written by Peter Selinger 2001-2017
</metadata>
<g transform="translate(0.000000,452.000000) scale(0.100000,-0.100000)"
fill="#000000" stroke="none">
<path d="M411 4146 c-53 -29 -50 75 -51 -1883 0 -1392 3 -1828 12 -1848 26
-58 -93 -55 1888 -55 1981 0 1862 -3 1888 55 9 20 12 456 12 1846 0 1980 3
1861 -55 1887 -40 19 -3661 17 -3694 -2z m3569 -1886 l0 -1720 -1720 0 -1720
0 0 1720 0 1720 1720 0 1720 0 0 -1720z"/>
<path d="M1810 3165 l0 -365 903 2 902 3 0 360 0 360 -902 3 -903 2 0 -365z
m1628 -2 l-3 -178 -722 -3 -723 -2 0 180 0 180 725 0 725 0 -2 -177z"/>
<path d="M902 3163 l3 -88 360 0 360 0 3 88 3 87 -366 0 -366 0 3 -87z"/>
<path d="M1810 2080 l0 -360 905 0 905 0 0 360 0 360 -905 0 -905 0 0 -360z
m1630 0 l0 -180 -725 0 -725 0 0 180 0 180 725 0 725 0 0 -180z"/>
<path d="M900 2080 l0 -90 365 0 365 0 0 90 0 90 -365 0 -365 0 0 -90z"/>
<path d="M1810 1085 l0 -275 270 0 270 0 0 275 0 275 -270 0 -270 0 0 -275z
m360 0 l0 -95 -90 0 -90 0 0 95 0 95 90 0 90 0 0 -95z"/>
<path d="M2534 1167 c-3 -8 -4 -49 -2 -93 l3 -79 540 0 540 0 0 90 0 90 -538
3 c-443 2 -538 0 -543 -11z"/>
</g>
</svg>
